<mxfile host="app.diagrams.net" agent="Mozilla/5.0 (Windows NT 10.0; Win64; x64) AppleWebKit/537.36 (KHTML, like Gecko) Chrome/136.0.0.0 Safari/537.36" version="27.0.2">
  <diagram name="Page-1" id="XZPbql7tDJyI14vgM3zL">
    <mxGraphModel dx="3700" dy="789" grid="1" gridSize="10" guides="1" tooltips="1" connect="1" arrows="1" fold="1" page="1" pageScale="1" pageWidth="827" pageHeight="1169" math="0" shadow="0">
      <root>
        <mxCell id="0" />
        <mxCell id="1" parent="0" />
        <mxCell id="mIgz2UJFzsigrVqeDT5T-3" value="" style="image;aspect=fixed;perimeter=ellipsePerimeter;html=1;align=center;shadow=0;dashed=0;spacingTop=3;image=img/lib/active_directory/internet_cloud.svg;" vertex="1" parent="1">
          <mxGeometry x="-990" y="530" width="87.29" height="54.99" as="geometry" />
        </mxCell>
        <mxCell id="mIgz2UJFzsigrVqeDT5T-140" value="" style="shape=image;editableCssRules=.*;verticalLabelPosition=bottom;labelBackgroundColor=default;verticalAlign=top;aspect=fixed;imageAspect=0;image=data:image/svg+xml,PHN2ZyB4bWxucz0iaHR0cDovL3d3dy53My5vcmcvMjAwMC9zdmciIHZpZXdCb3g9Ii0wLjUgLTAuNSAyNC4yMzMgMjgiIGhlaWdodD0iMjgiIHdpZHRoPSIyNC4yMzMiPiYjeGE7CSAgPHN0eWxlIHR5cGU9InRleHQvY3NzIj4uc3QwIHsgc3RvcC1jb2xvcjogcmdiKDM1LCAxNDksIDI1NSk7IH0gLnN0MSB7IHN0b3AtY29sb3I6IHJnYigwLCA4NywgMjEwKTsgfSA8L3N0eWxlPiYjeGE7CTxkZWZzPiYjeGE7CQk8bGluZWFyR3JhZGllbnQgZ3JhZGllbnRVbml0cz0idXNlclNwYWNlT25Vc2UiIHkyPSIyMi4yMjkiIHgyPSIyMi45NSIgeTE9IjMuNDc0IiB4MT0iMS42OTgiIGlkPSJBIj4mI3hhOwkJCTxzdG9wIGNsYXNzPSJzdDAiLz4mI3hhOwkJCTxzdG9wIGNsYXNzPSJzdDEiIG9mZnNldD0iMSIvPiYjeGE7CQk8L2xpbmVhckdyYWRpZW50PiYjeGE7CTwvZGVmcz4mI3hhOwk8cGF0aCBmaWxsPSJ1cmwoI0EpIiBkPSJNMTUuNTUyIDExLjYwOGwtLjkzMS0uNDM4aC4wMDJhNy4wMyA3LjAzIDAgMCAwIDEuNDgtMi4xOTJjLjQwMS0uODQuNjAzLTEuNzUzLjYwMy0yLjczOSAwLS45NS0uMTg0LTEuODI3LS41NDktMi42M2E2LjQ1IDYuNDUgMCAwIDAtMS40MjQtMi4xMzdDMTQuMTExLjg1MiAxMy4zOTkuMzc3IDEyLjU5Ni4wNDlBNi4yNyA2LjI3IDAgMCAwIDkuOTY2LS41Yy0uOTE0IDAtMS43OS4xODItMi42My41NDdhNi4zMiA2LjMyIDAgMCAwLTIuMTkyIDEuNDI1QTcuOCA3LjggMCAwIDAgMy43MTkgMy42MWMtLjM2NS44MDMtLjU0NyAxLjY4LS41NDcgMi42M2E2LjYzIDYuNjMgMCAwIDAgLjYwMSAyLjc5M2MuMzk3LjgzMy45NTYgMS41NzggMS42NDUgMi4xOTItMS43NTMuNjk0LTMuMTc3IDEuODQ2LTQuMjczIDMuNDUyQy4wNDkgMTYuMjQ4LS41IDE4LjA1NS0uNSAyMC4xMDF2Mi43NGMtLjAwOS4zNC4xMDguNjcyLjMyOC45MzFhMS4zOCAxLjM4IDAgMCAwIC45MzMuMzI4aDkuMzFjLjE1Mi4wMDQuMzA0LS4wMjMuNDQ1LS4wOHMuMjctLjE0Mi4zNzctLjI1YTEuMjcgMS4yNyAwIDAgMCAuMzg0LS45MjkgMS4wNCAxLjA0IDAgMCAwLS4zODQtLjgyMmMtLjIxOS0uMjU2LS40OTMtLjM4NC0uODIyLS4zODRIMS45NjZ2LTEuNTM0YzAtLjk4Ny4xNjMtMS44OTkuNDkxLTIuNzQuMzQxLS44MzkuODQzLTEuNjAyIDEuNDgtMi4yNDYuNjIxLS42NTggMS4zMzQtMS4xNjggMi4xMzctMS41MzRhNi42NyA2LjY3IDAgMCAxIDIuNjg0LS41NDdoMi42M2MuODA2LS4wMDYgMS42MDYuMTQyIDIuMzU3LjQzOC43NjYuMjU2IDEuMzY5LjU4NCAxLjgwOC45ODdhMi41OCAyLjU4IDAgMCAwIC42NTcuNDkxYy4xOTguMDY3LjM5OS4xMjIuNjAzLjE2NS4yOTMgMCAuNTY2LS4xMjguODIyLS4zODIuMTgyLS4xODIuMjczLS4zODQuMjczLS42MDN2LS4xNjVjLS4wMDgtLjM0Ny0uMTQ1LS42NzktLjM4NC0uOTMxYTUuMTggNS4xOCAwIDAgMC0uOTMxLS44MjIgNC4zMSA0LjMxIDAgMCAwLTEuMDQxLS42MDN6bS0yLjU3Ni0yLjMwMmMtLjgzOC44NDItMS44NDQgMS4yNjItMy4wMTIgMS4yNjJ2LS4wMDJjLTEuMTY5IDAtMi4xOTItLjQxOS0zLjA2OC0xLjI1OUE0LjE4IDQuMTggMCAwIDEgNS42MzUgNi4yNGE0LjExIDQuMTEgMCAwIDEgMS4yNjEtMy4wMTRjLjg3Ny0uODQgMS44OTktMS4yNjEgMy4wNjgtMS4yNjFhNC4xMSA0LjExIDAgMCAxIDMuMDEyIDEuMjYxYy44NzcuODQgMS4zMTUgMS44NDQgMS4zMTUgMy4wMTJhNC4wOCA0LjA4IDAgMCAxLTEuMzE1IDMuMDY4em0uMTUxIDE2LjMwOWEuODUuODUgMCAwIDEgLjIxMy0uNTdsNC4wMDEtNC4xNDJjLS4wOTUtLjMxNC0uMTQyLS42MzctLjE0Mi0uOTY3YTMuNjEgMy42MSAwIDAgMSAuMjYtMS4zNjRjLjE3NC0uNDMuNDE4LS44MDIuNzM0LTEuMTE2YTMuMTQgMy4xNCAwIDAgMSAxLjA2NS0uNzY5Yy4zOTUtLjE5OC44MjktLjI5OCAxLjMwMi0uMjk4YTMuMDkgMy4wOSAwIDAgMSAxLjk2NS42N2MuNTY4LjQzLjk3MS45OTIgMS4yMDcgMS42ODZIMjAuOTRjLS4yMjEgMC0uNDM0LjA3NC0uNjM5LjIyMy0uMjIxLjE0OS0uMzMxLjMzOS0uMzMxLjU3di43OTRjMCAuMjMyLjExLjQzLjMzMS41OTUuMjA1LjE0OS40MTguMjIzLjYzOS4yMjNoMi43OTRjLS4yMzcuNjYxLS42MzkgMS4yMTUtMS4yMDcgMS42NjItLjU2OC40My0xLjIyMy42NDUtMS45NjUuNjQ1LS40NTggMC0uODY4LS4wODMtMS4yMzEtLjI0OGwtMy44NTkgNC4wNjdhLjcyLjcyIDAgMCAxLS41NDQuMjIzYy0uMTg5IDAtLjM1NS0uMDc0LS40OTctLjIyM2wtMS4wODktMS4xNDFhLjczLjczIDAgMCAxLS4yMTMtLjUyMXoiIGZpbGwtcnVsZT0iZXZlbm9kZCIvPiYjeGE7PC9zdmc+;" vertex="1" parent="1">
          <mxGeometry x="-810" y="300" width="75.43" height="88" as="geometry" />
        </mxCell>
        <mxCell id="mIgz2UJFzsigrVqeDT5T-141" value="" style="shape=actor;whiteSpace=wrap;html=1;" vertex="1" parent="1">
          <mxGeometry x="-760" y="730" width="60" height="80" as="geometry" />
        </mxCell>
        <object label="&lt;div&gt;Admin&lt;/div&gt;" id="mIgz2UJFzsigrVqeDT5T-142">
          <mxCell style="text;html=1;align=center;verticalAlign=middle;whiteSpace=wrap;rounded=0;" vertex="1" parent="1">
            <mxGeometry x="-847.29" y="410" width="150" height="50" as="geometry" />
          </mxCell>
        </object>
        <object label="User" id="mIgz2UJFzsigrVqeDT5T-144">
          <mxCell style="text;html=1;align=center;verticalAlign=middle;whiteSpace=wrap;rounded=0;" vertex="1" parent="1">
            <mxGeometry x="-805" y="830" width="150" height="50" as="geometry" />
          </mxCell>
        </object>
        <mxCell id="mIgz2UJFzsigrVqeDT5T-145" value="" style="endArrow=classic;html=1;rounded=0;entryX=0.171;entryY=0.331;entryDx=0;entryDy=0;entryPerimeter=0;exitX=1.017;exitY=0.588;exitDx=0;exitDy=0;exitPerimeter=0;" edge="1" parent="1" source="mIgz2UJFzsigrVqeDT5T-141" target="mIgz2UJFzsigrVqeDT5T-139">
          <mxGeometry width="50" height="50" relative="1" as="geometry">
            <mxPoint x="-500" y="760" as="sourcePoint" />
            <mxPoint x="-450" y="710" as="targetPoint" />
          </mxGeometry>
        </mxCell>
        <mxCell id="mIgz2UJFzsigrVqeDT5T-151" value="SSH Key" style="shape=rect;fillColor=#FA4D56;aspect=fixed;resizable=0;labelPosition=center;verticalLabelPosition=bottom;align=center;verticalAlign=top;strokeColor=none;fontSize=14;" vertex="1" parent="1">
          <mxGeometry x="-520" y="350" width="48" height="48" as="geometry" />
        </mxCell>
        <mxCell id="mIgz2UJFzsigrVqeDT5T-152" value="" style="fillColor=#ffffff;strokeColor=none;dashed=0;outlineConnect=0;html=1;labelPosition=center;verticalLabelPosition=bottom;verticalAlign=top;part=1;movable=0;resizable=0;rotatable=0;shape=mxgraph.ibm_cloud.password" vertex="1" parent="mIgz2UJFzsigrVqeDT5T-151">
          <mxGeometry width="24" height="24" relative="1" as="geometry">
            <mxPoint x="12" y="12" as="offset" />
          </mxGeometry>
        </mxCell>
        <mxCell id="mIgz2UJFzsigrVqeDT5T-170" value="" style="fillColor=#ffffff;strokeColor=none;dashed=0;outlineConnect=0;html=1;labelPosition=center;verticalLabelPosition=bottom;verticalAlign=top;part=1;movable=0;resizable=0;rotatable=0;shape=mxgraph.ibm_cloud.password" vertex="1" parent="mIgz2UJFzsigrVqeDT5T-151">
          <mxGeometry width="24" height="24" relative="1" as="geometry">
            <mxPoint x="22" y="22" as="offset" />
          </mxGeometry>
        </mxCell>
        <mxCell id="mIgz2UJFzsigrVqeDT5T-153" value="" style="endArrow=classic;html=1;rounded=0;entryX=0;entryY=0.25;entryDx=0;entryDy=0;" edge="1" parent="1" source="mIgz2UJFzsigrVqeDT5T-170" target="mIgz2UJFzsigrVqeDT5T-4">
          <mxGeometry width="50" height="50" relative="1" as="geometry">
            <mxPoint x="-410" y="362" as="sourcePoint" />
            <mxPoint x="-330" y="358" as="targetPoint" />
            <Array as="points" />
          </mxGeometry>
        </mxCell>
        <object label="Internet" id="mIgz2UJFzsigrVqeDT5T-165">
          <mxCell style="text;html=1;align=center;verticalAlign=middle;whiteSpace=wrap;rounded=0;" vertex="1" parent="1">
            <mxGeometry x="-1030" y="600" width="150" height="50" as="geometry" />
          </mxCell>
        </object>
        <mxCell id="mIgz2UJFzsigrVqeDT5T-166" value="Public Subnets" style="text;html=1;align=center;verticalAlign=middle;whiteSpace=wrap;rounded=0;" vertex="1" parent="1">
          <mxGeometry x="20" y="150" width="230" height="40" as="geometry" />
        </mxCell>
        <mxCell id="mIgz2UJFzsigrVqeDT5T-168" value="" style="endArrow=classic;html=1;rounded=0;exitX=0.5;exitY=1;exitDx=0;exitDy=0;entryX=0.5;entryY=0;entryDx=0;entryDy=0;" edge="1" parent="1" source="mIgz2UJFzsigrVqeDT5T-140" target="mIgz2UJFzsigrVqeDT5T-3">
          <mxGeometry width="50" height="50" relative="1" as="geometry">
            <mxPoint x="-850" y="440" as="sourcePoint" />
            <mxPoint x="-660" y="580" as="targetPoint" />
            <Array as="points" />
          </mxGeometry>
        </mxCell>
        <mxCell id="mIgz2UJFzsigrVqeDT5T-172" value="" style="endArrow=classic;html=1;rounded=0;entryX=0;entryY=0.25;entryDx=0;entryDy=0;" edge="1" parent="1" target="mIgz2UJFzsigrVqeDT5T-151">
          <mxGeometry width="50" height="50" relative="1" as="geometry">
            <mxPoint x="-720" y="360" as="sourcePoint" />
            <mxPoint x="-480" y="369" as="targetPoint" />
            <Array as="points" />
          </mxGeometry>
        </mxCell>
        <mxCell id="mIgz2UJFzsigrVqeDT5T-176" value="" style="endArrow=classic;html=1;rounded=0;exitX=1.017;exitY=0.588;exitDx=0;exitDy=0;exitPerimeter=0;entryX=0.5;entryY=1;entryDx=0;entryDy=0;" edge="1" parent="1" target="mIgz2UJFzsigrVqeDT5T-3">
          <mxGeometry width="50" height="50" relative="1" as="geometry">
            <mxPoint x="-700" y="760" as="sourcePoint" />
            <mxPoint x="-530" y="730" as="targetPoint" />
            <Array as="points" />
          </mxGeometry>
        </mxCell>
        <mxCell id="mIgz2UJFzsigrVqeDT5T-164" value="" style="endArrow=classic;html=1;rounded=0;entryX=0;entryY=0.5;entryDx=0;entryDy=0;exitX=1;exitY=0.25;exitDx=0;exitDy=0;" edge="1" parent="1" source="mIgz2UJFzsigrVqeDT5T-3" target="mIgz2UJFzsigrVqeDT5T-19">
          <mxGeometry width="50" height="50" relative="1" as="geometry">
            <mxPoint x="-480" y="500" as="sourcePoint" />
            <mxPoint x="-250" y="490" as="targetPoint" />
            <Array as="points">
              <mxPoint x="-440" y="520" />
            </Array>
          </mxGeometry>
        </mxCell>
        <mxCell id="mIgz2UJFzsigrVqeDT5T-162" value="" style="endArrow=classic;html=1;rounded=0;entryX=0;entryY=0.5;entryDx=0;entryDy=0;exitX=1;exitY=0.5;exitDx=0;exitDy=0;" edge="1" parent="1" source="mIgz2UJFzsigrVqeDT5T-3" target="mIgz2UJFzsigrVqeDT5T-5">
          <mxGeometry width="50" height="50" relative="1" as="geometry">
            <mxPoint x="-460" y="520" as="sourcePoint" />
            <mxPoint x="-80" y="558" as="targetPoint" />
            <Array as="points">
              <mxPoint x="-430" y="520" />
            </Array>
          </mxGeometry>
        </mxCell>
        <mxCell id="mIgz2UJFzsigrVqeDT5T-163" value="" style="endArrow=classic;html=1;rounded=0;exitX=1;exitY=0.75;exitDx=0;exitDy=0;" edge="1" parent="1" source="mIgz2UJFzsigrVqeDT5T-3" target="mIgz2UJFzsigrVqeDT5T-20">
          <mxGeometry width="50" height="50" relative="1" as="geometry">
            <mxPoint x="-490" y="567.5" as="sourcePoint" />
            <mxPoint x="-240" y="520" as="targetPoint" />
            <Array as="points">
              <mxPoint x="-440" y="530" />
            </Array>
          </mxGeometry>
        </mxCell>
        <object label="/80" id="mIgz2UJFzsigrVqeDT5T-183">
          <mxCell style="text;html=1;align=center;verticalAlign=middle;whiteSpace=wrap;rounded=0;" vertex="1" parent="1">
            <mxGeometry x="-520" y="534.99" width="150" height="50" as="geometry" />
          </mxCell>
        </object>
        <mxCell id="mIgz2UJFzsigrVqeDT5T-4" value="" style="image;html=1;image=img/lib/clip_art/computers/Server_128x128.png" vertex="1" parent="1">
          <mxGeometry x="-470" y="330" width="80" height="80" as="geometry" />
        </mxCell>
        <mxCell id="mIgz2UJFzsigrVqeDT5T-167" value="" style="endArrow=classic;html=1;rounded=0;entryX=0;entryY=0.5;entryDx=0;entryDy=0;exitX=1;exitY=0.75;exitDx=0;exitDy=0;" edge="1" parent="1" source="mIgz2UJFzsigrVqeDT5T-4" target="mIgz2UJFzsigrVqeDT5T-5">
          <mxGeometry width="50" height="50" relative="1" as="geometry">
            <mxPoint x="-413" y="390.00358490566043" as="sourcePoint" />
            <mxPoint x="-140" y="432.23" as="targetPoint" />
            <Array as="points">
              <mxPoint x="-280" y="420" />
            </Array>
          </mxGeometry>
        </mxCell>
        <mxCell id="mIgz2UJFzsigrVqeDT5T-169" value="" style="endArrow=classic;html=1;rounded=0;exitX=1;exitY=0.75;exitDx=0;exitDy=0;" edge="1" parent="1" source="mIgz2UJFzsigrVqeDT5T-4" target="mIgz2UJFzsigrVqeDT5T-19">
          <mxGeometry width="50" height="50" relative="1" as="geometry">
            <mxPoint x="-270" y="350" as="sourcePoint" />
            <mxPoint x="150" y="355" as="targetPoint" />
            <Array as="points">
              <mxPoint x="-290" y="420" />
            </Array>
          </mxGeometry>
        </mxCell>
        <mxCell id="mIgz2UJFzsigrVqeDT5T-171" value="" style="endArrow=classic;html=1;rounded=0;" edge="1" parent="1" source="mIgz2UJFzsigrVqeDT5T-4" target="mIgz2UJFzsigrVqeDT5T-20">
          <mxGeometry width="50" height="50" relative="1" as="geometry">
            <mxPoint x="-290" y="380" as="sourcePoint" />
            <mxPoint x="-30" y="500" as="targetPoint" />
            <Array as="points">
              <mxPoint x="-290" y="420" />
            </Array>
          </mxGeometry>
        </mxCell>
        <object label="&lt;br&gt;&lt;span style=&quot;color: rgb(0, 0, 0); font-family: &amp;quot;Times New Roman&amp;quot;; font-size: 14px; font-style: normal; font-variant-ligatures: normal; font-variant-caps: normal; font-weight: 400; letter-spacing: normal; orphans: 2; text-align: start; text-indent: 0px; text-transform: none; widows: 2; word-spacing: 0px; -webkit-text-stroke-width: 0px; white-space: pre; text-decoration-thickness: initial; text-decoration-style: initial; text-decoration-color: initial; float: none; display: inline !important;&quot;&gt;ADM: &lt;br/&gt;&lt;span style=&quot;color: rgb(255, 255, 255); font-family: Helvetica; font-size: 12px; text-align: center; white-space: normal;&quot;&gt;ip&lt;/span&gt;&lt;span style=&quot;color: rgb(255, 255, 255); font-family: Helvetica; font-size: 12px; white-space: normal;&quot;&gt;&lt;font style=&quot;color: rgb(0, 0, 0);&quot; face=&quot;Times New Roman&quot;&gt;&lt;span style=&quot;font-size: 14px; white-space: pre;&quot;&gt;&amp;nbsp;pub defini par terraform&lt;/span&gt;&lt;/font&gt;&lt;/span&gt;&lt;br&gt;10.0.1.10 priv&lt;br&gt;&lt;/span&gt;&lt;div&gt;&lt;br&gt;&lt;/div&gt;" id="mIgz2UJFzsigrVqeDT5T-106">
          <mxCell style="text;html=1;align=center;verticalAlign=middle;whiteSpace=wrap;rounded=0;" vertex="1" parent="1">
            <mxGeometry x="-510" y="410" width="150" height="50" as="geometry" />
          </mxCell>
        </object>
        <mxCell id="mIgz2UJFzsigrVqeDT5T-2" value="" style="swimlane;startSize=0;" vertex="1" parent="1">
          <mxGeometry x="-390" y="200" width="1030" height="720" as="geometry" />
        </mxCell>
        <mxCell id="mIgz2UJFzsigrVqeDT5T-19" value="" style="image;html=1;image=img/lib/clip_art/computers/Server_128x128.png" vertex="1" parent="mIgz2UJFzsigrVqeDT5T-2">
          <mxGeometry x="360" y="110" width="80" height="80" as="geometry" />
        </mxCell>
        <mxCell id="mIgz2UJFzsigrVqeDT5T-20" value="" style="image;html=1;image=img/lib/clip_art/computers/Server_128x128.png" vertex="1" parent="mIgz2UJFzsigrVqeDT5T-2">
          <mxGeometry x="180" y="360" width="80" height="80" as="geometry" />
        </mxCell>
        <mxCell id="mIgz2UJFzsigrVqeDT5T-6" value="10.0.2.5" style="swimlane;startSize=0;" vertex="1" parent="mIgz2UJFzsigrVqeDT5T-2">
          <mxGeometry x="660" y="140" width="350" height="480" as="geometry" />
        </mxCell>
        <mxCell id="mIgz2UJFzsigrVqeDT5T-13" value="" style="image;aspect=fixed;perimeter=ellipsePerimeter;html=1;align=center;shadow=0;dashed=0;spacingTop=3;image=img/lib/active_directory/web_server.svg;" vertex="1" parent="mIgz2UJFzsigrVqeDT5T-6">
          <mxGeometry x="90" y="160" width="40" height="50" as="geometry" />
        </mxCell>
        <object label="Web1:&amp;nbsp;10.0.2.5" id="mIgz2UJFzsigrVqeDT5T-32">
          <mxCell style="text;html=1;align=center;verticalAlign=middle;whiteSpace=wrap;rounded=0;" vertex="1" parent="mIgz2UJFzsigrVqeDT5T-6">
            <mxGeometry x="40" y="100" width="130" height="30" as="geometry" />
          </mxCell>
        </object>
        <mxCell id="mIgz2UJFzsigrVqeDT5T-48" value="" style="swimlane;startSize=0;" vertex="1" parent="mIgz2UJFzsigrVqeDT5T-6">
          <mxGeometry y="275" width="220" height="205" as="geometry" />
        </mxCell>
        <mxCell id="mIgz2UJFzsigrVqeDT5T-50" value="" style="swimlane;startSize=0;" vertex="1" parent="mIgz2UJFzsigrVqeDT5T-48">
          <mxGeometry y="-140" width="220" height="145" as="geometry" />
        </mxCell>
        <object label="Web2: 10.0.3.5" id="mIgz2UJFzsigrVqeDT5T-39">
          <mxCell style="text;html=1;align=center;verticalAlign=middle;whiteSpace=wrap;rounded=0;" vertex="1" parent="mIgz2UJFzsigrVqeDT5T-50">
            <mxGeometry x="40" y="90" width="130" height="30" as="geometry" />
          </mxCell>
        </object>
        <mxCell id="mIgz2UJFzsigrVqeDT5T-14" value="" style="image;aspect=fixed;perimeter=ellipsePerimeter;html=1;align=center;shadow=0;dashed=0;spacingTop=3;image=img/lib/active_directory/web_server.svg;" vertex="1" parent="mIgz2UJFzsigrVqeDT5T-48">
          <mxGeometry x="94" y="45" width="40" height="50" as="geometry" />
        </mxCell>
        <object label="Web3: 10.0.4.5" id="mIgz2UJFzsigrVqeDT5T-47">
          <mxCell style="text;html=1;align=center;verticalAlign=middle;whiteSpace=wrap;rounded=0;" vertex="1" parent="mIgz2UJFzsigrVqeDT5T-48">
            <mxGeometry x="40" y="105" width="130" height="30" as="geometry" />
          </mxCell>
        </object>
        <mxCell id="mIgz2UJFzsigrVqeDT5T-179" value="" style="endArrow=classic;html=1;rounded=0;entryX=0;entryY=1;entryDx=0;entryDy=0;" edge="1" parent="mIgz2UJFzsigrVqeDT5T-48" target="mIgz2UJFzsigrVqeDT5T-156">
          <mxGeometry width="50" height="50" relative="1" as="geometry">
            <mxPoint x="143" y="75" as="sourcePoint" />
            <mxPoint x="229" y="205" as="targetPoint" />
            <Array as="points" />
          </mxGeometry>
        </mxCell>
        <mxCell id="mIgz2UJFzsigrVqeDT5T-51" style="edgeStyle=orthogonalEdgeStyle;rounded=0;orthogonalLoop=1;jettySize=auto;html=1;exitX=0.5;exitY=1;exitDx=0;exitDy=0;" edge="1" parent="mIgz2UJFzsigrVqeDT5T-6" source="mIgz2UJFzsigrVqeDT5T-48" target="mIgz2UJFzsigrVqeDT5T-48">
          <mxGeometry relative="1" as="geometry" />
        </mxCell>
        <mxCell id="mIgz2UJFzsigrVqeDT5T-157" value="" style="swimlane;startSize=0;" vertex="1" parent="mIgz2UJFzsigrVqeDT5T-6">
          <mxGeometry width="220" height="130" as="geometry" />
        </mxCell>
        <mxCell id="mIgz2UJFzsigrVqeDT5T-11" value="" style="image;aspect=fixed;perimeter=ellipsePerimeter;html=1;align=center;shadow=0;dashed=0;spacingTop=3;image=img/lib/active_directory/web_server.svg;" vertex="1" parent="mIgz2UJFzsigrVqeDT5T-157">
          <mxGeometry x="90" y="40" width="40" height="50" as="geometry" />
        </mxCell>
        <mxCell id="mIgz2UJFzsigrVqeDT5T-175" value="" style="endArrow=classic;html=1;rounded=0;entryX=0;entryY=0;entryDx=0;entryDy=0;" edge="1" parent="mIgz2UJFzsigrVqeDT5T-157" target="mIgz2UJFzsigrVqeDT5T-156">
          <mxGeometry width="50" height="50" relative="1" as="geometry">
            <mxPoint x="120" y="80" as="sourcePoint" />
            <mxPoint x="430" y="126" as="targetPoint" />
            <Array as="points" />
          </mxGeometry>
        </mxCell>
        <mxCell id="mIgz2UJFzsigrVqeDT5T-177" value="" style="endArrow=classic;html=1;rounded=0;entryX=0;entryY=0;entryDx=0;entryDy=0;" edge="1" parent="mIgz2UJFzsigrVqeDT5T-157">
          <mxGeometry width="50" height="50" relative="1" as="geometry">
            <mxPoint x="130" y="90" as="sourcePoint" />
            <mxPoint x="260" y="150" as="targetPoint" />
            <Array as="points" />
          </mxGeometry>
        </mxCell>
        <object label="DB1&amp;nbsp;10.0.5.5" id="mIgz2UJFzsigrVqeDT5T-158">
          <mxCell style="text;html=1;align=center;verticalAlign=middle;whiteSpace=wrap;rounded=0;" vertex="1" parent="mIgz2UJFzsigrVqeDT5T-6">
            <mxGeometry x="230" y="235" width="130" height="30" as="geometry" />
          </mxCell>
        </object>
        <mxCell id="mIgz2UJFzsigrVqeDT5T-159" value="" style="edgeStyle=orthogonalEdgeStyle;rounded=0;orthogonalLoop=1;jettySize=auto;html=1;" edge="1" parent="mIgz2UJFzsigrVqeDT5T-6" source="mIgz2UJFzsigrVqeDT5T-39" target="mIgz2UJFzsigrVqeDT5T-32">
          <mxGeometry relative="1" as="geometry">
            <Array as="points">
              <mxPoint x="110" y="190" />
              <mxPoint x="110" y="190" />
            </Array>
          </mxGeometry>
        </mxCell>
        <mxCell id="mIgz2UJFzsigrVqeDT5T-178" value="" style="endArrow=classic;html=1;rounded=0;" edge="1" parent="mIgz2UJFzsigrVqeDT5T-6" target="mIgz2UJFzsigrVqeDT5T-156">
          <mxGeometry width="50" height="50" relative="1" as="geometry">
            <mxPoint x="120" y="209" as="sourcePoint" />
            <mxPoint x="320" y="261" as="targetPoint" />
            <Array as="points" />
          </mxGeometry>
        </mxCell>
        <object label="/3306" id="mIgz2UJFzsigrVqeDT5T-191">
          <mxCell style="text;html=1;align=center;verticalAlign=middle;whiteSpace=wrap;rounded=0;" vertex="1" parent="mIgz2UJFzsigrVqeDT5T-6">
            <mxGeometry x="170" y="150" width="120" height="50" as="geometry" />
          </mxCell>
        </object>
        <object label="&lt;div style=&quot;text-align: start;&quot;&gt;&lt;span style=&quot;background-color: transparent; color: light-dark(rgb(0, 0, 0), rgb(255, 255, 255));&quot;&gt;Grafana:&amp;nbsp;&lt;/span&gt;&lt;/div&gt;ip&lt;span style=&quot;text-align: start;&quot;&gt;&lt;font style=&quot;color: rgb(0, 0, 0);&quot; face=&quot;Times New Roman&quot;&gt;&lt;span style=&quot;font-size: 14px; white-space: pre;&quot;&gt;&amp;nbsp;pub defini par terraform&lt;/span&gt;&lt;/font&gt;&lt;/span&gt;&lt;span style=&quot;text-align: start;&quot;&gt;&lt;font style=&quot;&quot;&gt;&lt;br&gt;&lt;font face=&quot;Times New Roman&quot;&gt;&lt;span style=&quot;font-size: 14px; white-space: pre;&quot;&gt;10.0.1.14 priv&lt;/span&gt;&lt;/font&gt;&lt;/font&gt;&lt;/span&gt;" id="mIgz2UJFzsigrVqeDT5T-105">
          <mxCell style="text;html=1;align=center;verticalAlign=middle;whiteSpace=wrap;rounded=0;" vertex="1" parent="mIgz2UJFzsigrVqeDT5T-2">
            <mxGeometry x="340" y="180" width="160" height="50" as="geometry" />
          </mxCell>
        </object>
        <object label="&lt;div style=&quot;text-align: start;&quot;&gt;&lt;span style=&quot;background-color: transparent; color: light-dark(rgb(0, 0, 0), rgb(255, 255, 255));&quot;&gt;Prometheus:&amp;nbsp;&lt;/span&gt;&lt;/div&gt;ip&lt;span style=&quot;text-align: start;&quot;&gt;&lt;font style=&quot;color: rgb(0, 0, 0);&quot; face=&quot;Times New Roman&quot;&gt;&lt;span style=&quot;font-size: 14px; white-space: pre;&quot;&gt;&amp;nbsp;pub defini par terraform&lt;/span&gt;&lt;/font&gt;&lt;/span&gt;&lt;span style=&quot;text-align: start;&quot;&gt;&lt;font style=&quot;&quot;&gt;&lt;br&gt;&lt;font face=&quot;Times New Roman&quot;&gt;&lt;span style=&quot;font-size: 14px; white-space: pre;&quot;&gt;10.0.1.13 priv&lt;/span&gt;&lt;/font&gt;&lt;/font&gt;&lt;/span&gt;" id="mIgz2UJFzsigrVqeDT5T-136">
          <mxCell style="text;html=1;align=center;verticalAlign=middle;whiteSpace=wrap;rounded=0;" vertex="1" parent="mIgz2UJFzsigrVqeDT5T-2">
            <mxGeometry x="460" y="310" width="70" height="50" as="geometry" />
          </mxCell>
        </object>
        <mxCell id="mIgz2UJFzsigrVqeDT5T-138" value="Private Subnets" style="text;html=1;align=center;verticalAlign=middle;whiteSpace=wrap;rounded=0;" vertex="1" parent="mIgz2UJFzsigrVqeDT5T-2">
          <mxGeometry x="770" y="100" width="120" height="30" as="geometry" />
        </mxCell>
        <mxCell id="mIgz2UJFzsigrVqeDT5T-139" value="" style="points=[];aspect=fixed;html=1;align=center;shadow=0;dashed=0;fillColor=#FF6A00;strokeColor=none;shape=mxgraph.alibaba_cloud.alb_application_load_balancer_02;" vertex="1" parent="mIgz2UJFzsigrVqeDT5T-2">
          <mxGeometry x="90" y="550" width="60" height="60" as="geometry" />
        </mxCell>
        <mxCell id="mIgz2UJFzsigrVqeDT5T-146" value="" style="endArrow=classic;html=1;rounded=0;exitX=0.833;exitY=0.817;exitDx=0;exitDy=0;exitPerimeter=0;" edge="1" parent="mIgz2UJFzsigrVqeDT5T-2" source="mIgz2UJFzsigrVqeDT5T-139" target="mIgz2UJFzsigrVqeDT5T-14">
          <mxGeometry width="50" height="50" relative="1" as="geometry">
            <mxPoint x="150" y="586" as="sourcePoint" />
            <mxPoint x="361" y="610" as="targetPoint" />
          </mxGeometry>
        </mxCell>
        <mxCell id="mIgz2UJFzsigrVqeDT5T-147" value="" style="endArrow=classic;html=1;rounded=0;" edge="1" parent="mIgz2UJFzsigrVqeDT5T-2" target="mIgz2UJFzsigrVqeDT5T-13">
          <mxGeometry width="50" height="50" relative="1" as="geometry">
            <mxPoint x="150" y="570" as="sourcePoint" />
            <mxPoint x="740" y="460" as="targetPoint" />
          </mxGeometry>
        </mxCell>
        <object label="R Proxy: ip&lt;span style=&quot;text-align: start;&quot;&gt;&lt;font style=&quot;&quot;&gt;&lt;font style=&quot;color: rgb(0, 0, 0);&quot; face=&quot;Times New Roman&quot;&gt;&lt;span style=&quot;font-size: 14px; white-space: pre;&quot;&gt;&amp;nbsp;pub defini par terraform&lt;/span&gt;&lt;/font&gt;&lt;br&gt;&lt;font face=&quot;Times New Roman&quot;&gt;&lt;span style=&quot;font-size: 14px; white-space: pre;&quot;&gt;10.0.1.11 priv&lt;/span&gt;&lt;/font&gt;&lt;/font&gt;&lt;/span&gt;" id="mIgz2UJFzsigrVqeDT5T-137">
          <mxCell style="text;html=1;align=center;verticalAlign=middle;whiteSpace=wrap;rounded=0;" vertex="1" parent="mIgz2UJFzsigrVqeDT5T-2">
            <mxGeometry x="30" y="610" width="180" height="50" as="geometry" />
          </mxCell>
        </object>
        <mxCell id="mIgz2UJFzsigrVqeDT5T-148" value="" style="endArrow=classic;html=1;rounded=0;entryX=0;entryY=0.5;entryDx=0;entryDy=0;exitX=0.95;exitY=0.233;exitDx=0;exitDy=0;exitPerimeter=0;" edge="1" parent="mIgz2UJFzsigrVqeDT5T-2" source="mIgz2UJFzsigrVqeDT5T-139" target="mIgz2UJFzsigrVqeDT5T-11">
          <mxGeometry width="50" height="50" relative="1" as="geometry">
            <mxPoint x="140" y="564" as="sourcePoint" />
            <mxPoint x="751" y="320" as="targetPoint" />
          </mxGeometry>
        </mxCell>
        <object label="Jenkins:&amp;nbsp;&lt;br&gt;ip&lt;span style=&quot;text-align: start;&quot;&gt;&lt;font style=&quot;color: rgb(0, 0, 0);&quot; face=&quot;Times New Roman&quot;&gt;&lt;span style=&quot;font-size: 14px; white-space: pre;&quot;&gt;&amp;nbsp;pub defini par terraform&lt;/span&gt;&lt;/font&gt;&lt;/span&gt;&lt;span style=&quot;text-align: start;&quot;&gt;&lt;font style=&quot;&quot;&gt;&lt;br&gt;&lt;font face=&quot;Times New Roman&quot;&gt;&lt;span style=&quot;font-size: 14px; white-space: pre;&quot;&gt;10.0.1.67 priv&lt;/span&gt;&lt;/font&gt;&lt;/font&gt;&lt;/span&gt;" id="mIgz2UJFzsigrVqeDT5T-155">
          <mxCell style="text;html=1;align=center;verticalAlign=middle;whiteSpace=wrap;rounded=0;" vertex="1" parent="mIgz2UJFzsigrVqeDT5T-2">
            <mxGeometry x="130" y="440" width="180" height="50" as="geometry" />
          </mxCell>
        </object>
        <mxCell id="mIgz2UJFzsigrVqeDT5T-156" value="" style="shape=image;html=1;verticalAlign=top;verticalLabelPosition=bottom;labelBackgroundColor=#ffffff;imageAspect=0;aspect=fixed;image=https://cdn0.iconfinder.com/data/icons/Hosting_Icons/128/database-px-png.png" vertex="1" parent="mIgz2UJFzsigrVqeDT5T-2">
          <mxGeometry x="910" y="280" width="80" height="80" as="geometry" />
        </mxCell>
        <object label="/22" id="mIgz2UJFzsigrVqeDT5T-184">
          <mxCell style="text;html=1;align=center;verticalAlign=middle;whiteSpace=wrap;rounded=0;" vertex="1" parent="mIgz2UJFzsigrVqeDT5T-2">
            <mxGeometry x="20" y="210" width="150" height="50" as="geometry" />
          </mxCell>
        </object>
        <mxCell id="mIgz2UJFzsigrVqeDT5T-187" value="" style="endArrow=classic;html=1;rounded=0;entryX=0;entryY=1;entryDx=0;entryDy=0;exitX=0;exitY=0.25;exitDx=0;exitDy=0;" edge="1" parent="mIgz2UJFzsigrVqeDT5T-2" source="mIgz2UJFzsigrVqeDT5T-2" target="mIgz2UJFzsigrVqeDT5T-14">
          <mxGeometry width="50" height="50" relative="1" as="geometry">
            <mxPoint x="150" y="220" as="sourcePoint" />
            <mxPoint x="559" y="223" as="targetPoint" />
          </mxGeometry>
        </mxCell>
        <mxCell id="mIgz2UJFzsigrVqeDT5T-5" value="" style="image;html=1;image=img/lib/clip_art/computers/Server_128x128.png" vertex="1" parent="mIgz2UJFzsigrVqeDT5T-2">
          <mxGeometry x="390" y="240" width="80" height="80" as="geometry" />
        </mxCell>
        <mxCell id="mIgz2UJFzsigrVqeDT5T-185" value="" style="endArrow=classic;html=1;rounded=0;entryX=0;entryY=0.5;entryDx=0;entryDy=0;" edge="1" parent="1" source="mIgz2UJFzsigrVqeDT5T-4" target="mIgz2UJFzsigrVqeDT5T-11">
          <mxGeometry width="50" height="50" relative="1" as="geometry">
            <mxPoint x="-280" y="420" as="sourcePoint" />
            <mxPoint x="129" y="423" as="targetPoint" />
          </mxGeometry>
        </mxCell>
        <mxCell id="mIgz2UJFzsigrVqeDT5T-190" value="" style="endArrow=classic;html=1;rounded=0;" edge="1" parent="1">
          <mxGeometry width="50" height="50" relative="1" as="geometry">
            <mxPoint x="-380" y="382" as="sourcePoint" />
            <mxPoint x="360" y="530" as="targetPoint" />
          </mxGeometry>
        </mxCell>
        <object label="/80" id="mIgz2UJFzsigrVqeDT5T-192">
          <mxCell style="text;html=1;align=center;verticalAlign=middle;whiteSpace=wrap;rounded=0;" vertex="1" parent="1">
            <mxGeometry x="-564" y="720" width="150" height="50" as="geometry" />
          </mxCell>
        </object>
      </root>
    </mxGraphModel>
  </diagram>
</mxfile>
